<svg width="915" height="125" viewBox="0 0 915 125" fill="none" xmlns="http://www.w3.org/2000/svg">
<path fill-rule="evenodd" clip-rule="evenodd" d="M514.828 50.3078H504.4V70.3882C504.4 75.7686 507.972 75.6725 514.828 75.3843V83.551C500.828 85.1843 495.324 81.3412 495.324 70.4843V50.4039H487.6V41.6608H495.324V30.4196L504.4 27.7294V41.6608H514.828V50.3078ZM554.607 41.5647H563.683V83.4549H554.607V77.402C551.421 81.8216 546.4 84.5118 539.834 84.5118C528.345 84.5118 518.883 74.9039 518.883 62.5098C518.883 50.0196 528.441 40.5078 539.834 40.5078C546.4 40.5078 551.421 43.198 554.607 47.5216V41.5647V41.5647ZM541.283 75.9608C548.91 75.9608 554.607 70.3882 554.607 62.5098C554.607 54.7275 548.91 49.0588 541.283 49.0588C533.752 49.0588 527.959 54.6314 527.959 62.5098C527.959 70.3882 533.752 75.9608 541.283 75.9608ZM578.841 35.3196C575.655 35.3196 573.048 32.6294 573.048 29.5549C573.048 26.3843 575.655 23.7902 578.841 23.7902C582.028 23.7902 584.634 26.3843 584.634 29.5549C584.731 32.6294 582.028 35.3196 578.841 35.3196ZM574.303 83.4549V41.5647H583.379V83.4549H574.303ZM593.903 83.4549V22.2529H602.979V83.4549H593.903ZM662.069 41.5647H671.628L658.4 83.4549H649.517L640.731 55.2078L631.848 83.4549H622.966L609.738 41.5647H619.297L627.503 70.4843L636.386 41.5647H645.076L653.862 70.4843L662.069 41.5647ZM683.021 35.3196C679.834 35.3196 677.228 32.6294 677.228 29.5549C677.228 26.3843 679.834 23.7902 683.021 23.7902C686.207 23.7902 688.814 26.3843 688.814 29.5549C688.814 32.6294 686.207 35.3196 683.021 35.3196ZM678.386 83.4549V41.5647H687.462V83.4549H678.386ZM720.193 40.5078C729.655 40.5078 736.414 46.849 736.414 57.802V83.551H727.338V58.6667C727.338 52.3255 723.669 48.9627 717.876 48.9627C711.89 48.9627 707.159 52.5176 707.159 61.0686V83.551H698.083V41.6608H707.159V47.0412C709.959 42.6216 714.497 40.5078 720.193 40.5078ZM779.476 24.847H788.552V83.551H779.476V77.498C776.29 81.9177 771.269 84.6078 764.703 84.6078C753.214 84.6078 743.752 75 743.752 62.6059C743.752 50.1157 753.31 40.6039 764.703 40.6039C771.269 40.6039 776.29 43.2941 779.476 47.6176V24.847ZM766.248 75.9608C773.876 75.9608 779.572 70.3882 779.572 62.5098C779.572 54.7275 773.876 49.0588 766.248 49.0588C758.717 49.0588 752.924 54.6314 752.924 62.5098C752.924 70.3882 758.621 75.9608 766.248 75.9608ZM819.062 84.6078C806.317 84.6078 796.855 75 796.855 62.6059C796.855 50.1157 806.414 40.6039 819.062 40.6039C827.366 40.6039 834.51 44.8314 837.89 51.4608L830.069 55.9765C828.235 52.0373 824.083 49.5392 819.062 49.5392C811.628 49.5392 806.028 55.1118 806.028 62.702C806.028 70.2922 811.628 75.8647 819.062 75.8647C824.083 75.8647 828.235 73.2706 830.262 69.4275L838.083 73.847C834.51 80.2843 827.366 84.6078 819.062 84.6078ZM853.048 53.1902C853.048 60.7804 875.738 56.1686 875.738 71.7333C875.738 80.0922 868.4 84.6078 859.324 84.6078C850.924 84.6078 844.841 80.8608 842.138 74.8078L849.959 70.2922C851.31 74.0392 854.69 76.3451 859.324 76.3451C863.379 76.3451 866.469 75 866.469 71.6373C866.469 64.1431 843.779 68.3706 843.779 53.3824C843.779 45.5039 850.635 40.6039 859.228 40.6039C866.179 40.6039 871.876 43.7745 874.772 49.347L867.145 53.5745C865.6 50.3079 862.703 48.7706 859.228 48.7706C855.945 48.6745 853.048 50.1157 853.048 53.1902ZM891.862 53.1902C891.862 60.7804 914.552 56.1686 914.552 71.7333C914.552 80.0922 907.214 84.6078 898.138 84.6078C889.738 84.6078 883.655 80.8608 880.952 74.8078L888.772 70.2922C890.124 74.0392 893.503 76.3451 898.138 76.3451C902.193 76.3451 905.283 75 905.283 71.6373C905.283 64.1431 882.593 68.3706 882.593 53.3824C882.593 45.5039 889.448 40.6039 898.041 40.6039C904.993 40.6039 910.69 43.7745 913.586 49.347L905.959 53.5745C904.414 50.3079 901.517 48.7706 898.041 48.7706C894.759 48.6745 891.862 50.1157 891.862 53.1902Z" fill="black"/>
<path fill-rule="evenodd" clip-rule="evenodd" d="M395.103 20.2353C379.172 20.2353 369.131 28.2098 365.172 44.0627C371.159 36.0882 378.11 33.1098 386.124 35.1274C390.662 36.2804 393.945 39.547 397.517 43.198C403.407 49.1549 410.166 55.9765 425.034 55.9765C440.966 55.9765 451.007 48.002 454.966 32.149C448.979 40.1235 442.028 43.102 434.014 41.0843C429.476 39.9314 426.193 36.6647 422.621 33.0137C416.731 27.0568 409.972 20.2353 395.103 20.2353ZM365.172 55.8804C349.241 55.8804 339.2 63.8549 335.241 79.7078C341.228 71.7333 348.179 68.7549 356.193 70.7726C360.731 71.9255 364.014 75.1922 367.586 78.8431C373.476 84.8 380.234 91.6216 395.103 91.6216C411.034 91.6216 421.076 83.6471 425.034 67.7941C419.048 75.7686 412.097 78.747 404.083 76.7294C399.545 75.5765 396.262 72.3098 392.69 68.6588C386.8 62.798 380.041 55.8804 365.172 55.8804Z" fill="#06B6D4"/>
<path d="M48.7393 32.3452H87.6982V35.4268H52.3105V58.6202H85.588V61.7018H52.3105V87.1659H88.1041V90.2475H48.7393V32.3452ZM91.1883 32.3452H95.3277L113.671 57.8092L132.42 32.3452L157.922 0L116.025 60.4854L137.614 90.2475H133.313L113.671 63.1616L93.9479 90.2475H89.7274L111.479 60.4854L91.1883 32.3452ZM139.157 35.4268V32.3452H183.554V35.4268H163.1V90.2475H159.529V35.4268H139.157Z" fill="black"/>
<path d="M0 32.3452H4.46405L66.0207 124.016L40.5823 90.2475L3.73357 36.7244L3.57124 90.2475H0V32.3452Z" fill="black"/>
<path d="M183.194 86.2359C183.932 86.2359 184.471 85.6733 184.471 84.9462C184.471 84.2192 183.932 83.6565 183.194 83.6565C182.464 83.6565 181.917 84.2192 181.917 84.9462C181.917 85.6733 182.464 86.2359 183.194 86.2359ZM186.703 82.8429C186.703 84.9895 188.258 86.3917 190.525 86.3917C192.939 86.3917 194.399 84.9462 194.399 82.4361V73.5987H192.453V82.4274C192.453 83.821 191.749 84.5654 190.507 84.5654C189.396 84.5654 188.64 83.8729 188.614 82.8429H186.703ZM196.944 82.7304C197.083 84.9635 198.95 86.3917 201.73 86.3917C204.7 86.3917 206.559 84.8943 206.559 82.5053C206.559 80.6271 205.5 79.5884 202.928 78.9912L201.547 78.6536C199.914 78.2727 199.254 77.7621 199.254 76.8705C199.254 75.7453 200.279 75.0096 201.817 75.0096C203.276 75.0096 204.283 75.728 204.466 76.8792H206.359C206.247 74.7759 204.388 73.2958 201.843 73.2958C199.107 73.2958 197.282 74.7759 197.282 77.0004C197.282 78.8354 198.316 79.926 200.583 80.454L202.199 80.8435C203.858 81.233 204.587 81.8042 204.587 82.7564C204.587 83.8643 203.441 84.6692 201.877 84.6692C200.201 84.6692 199.037 83.9162 198.872 82.7304H196.944Z" fill="black"/>
<path d="M279.957 60.5273V62.7344H260.465V60.5273H279.957ZM271.305 51.4453V72.1484H268.961V51.4453H271.305Z" fill="black"/>
</svg>
